<svg xmlns="http://www.w3.org/2000/svg" viewBox="0 0 512 512">
  <defs>
    <linearGradient id="bg" x1="0%" y1="0%" x2="100%" y2="100%">
      <stop offset="0%" style="stop-color:#3b82f6"/>
      <stop offset="100%" style="stop-color:#1e3a5f"/>
    </linearGradient>
  </defs>
  <rect width="512" height="512" rx="96" fill="url(#bg)"/>
  <path d="M256 128c-70.7 0-128 57.3-128 128 0 70.7 57.3 128 128 128s128-57.3 128-128c0-70.7-57.3-128-128-128zm0 192c-35.3 0-64-28.7-64-64s28.7-64 64-64 64 28.7 64 64-28.7 64-64 64z" fill="rgba(255,255,255,0.9)"/>
  <path d="M352 192l48-48M160 320l-48 48M352 320l48 48M160 192l-48-48" stroke="rgba(255,255,255,0.9)" stroke-width="24" stroke-linecap="round"/>
</svg>
